<svg width="32" height="32" viewBox="0 0 32 32" fill="none" xmlns="http://www.w3.org/2000/svg">
<path d="M23.0002 23H8.72518L5.23768 3.825C5.19688 3.59537 5.07709 3.38722 4.89905 3.23657C4.721 3.08592 4.4959 3.00223 4.26268 3H2.00018" stroke="#ffffff" stroke-linecap="round" stroke-linejoin="round"/>
<path d="M10.0002 28.0001C11.3809 28.0001 12.5002 26.8808 12.5002 25.5001C12.5002 24.1193 11.3809 23.0001 10.0002 23.0001C8.61947 23.0001 7.50018 24.1193 7.50018 25.5001C7.50018 26.8808 8.61947 28.0001 10.0002 28.0001Z" stroke="#ffffff" stroke-linecap="round" stroke-linejoin="round"/>
<path d="M23 28.0001C24.3807 28.0001 25.5 26.8808 25.5 25.5001C25.5 24.1193 24.3807 23.0001 23 23.0001C21.6193 23.0001 20.5 24.1193 20.5 25.5001C20.5 26.8808 21.6193 28.0001 23 28.0001Z" stroke="#ffffff" stroke-linecap="round" stroke-linejoin="round"/>
<path d="M7.81256 18.0001H23.5126C23.98 18.0015 24.433 17.8381 24.7919 17.5386C25.1509 17.2391 25.3927 16.8227 25.4751 16.3626L27.0001 8.00006H6.00006" stroke="#ffffff" stroke-linecap="round" stroke-linejoin="round"/>
</svg>
